<?xml version="1.0" encoding="utf-8"?>
<!-- Generator: Adobe Illustrator 16.0.0, SVG Export Plug-In . SVG Version: 6.00 Build 0)  -->
<!DOCTYPE svg PUBLIC "-//W3C//DTD SVG 1.1//EN" "http://www.w3.org/Graphics/SVG/1.1/DTD/svg11.dtd">
<svg version="1.1" id="图层_1" xmlns="http://www.w3.org/2000/svg" xmlns:xlink="http://www.w3.org/1999/xlink" x="0px" y="0px"
	 width="59.993px" height="59.992px" viewBox="0 0 59.993 59.992" enable-background="new 0 0 59.993 59.992" xml:space="preserve">
<g>
	<g>
		<path fill-rule="evenodd" clip-rule="evenodd" fill="#459DE0" d="M29.996,58.492C14.283,58.492,1.5,45.709,1.5,29.996
			S14.283,1.5,29.996,1.5c15.713,0,28.497,12.783,28.497,28.496S45.709,58.492,29.996,58.492z"/>
		<path fill="#60B1EF" d="M29.996,3c14.886,0,26.997,12.11,26.997,26.996S44.882,56.992,29.996,56.992
			C15.11,56.992,3,44.882,3,29.996S15.11,3,29.996,3 M29.996,0C13.43,0,0,13.43,0,29.996s13.43,29.996,29.996,29.996
			s29.997-13.43,29.997-29.996S46.563,0,29.996,0L29.996,0z"/>
	</g>
	<path opacity="0.75" fill-rule="evenodd" clip-rule="evenodd" fill="#FFFFFF" d="M12.374,15.373h5.565l4.329,18.279l4.946-18.279
		h5.565l4.328,17.67l4.329-12.186h-3.71v-5.484h9.894l-8.039,29.247h-5.565l-3.71-17.061l-4.946,17.061h-5.565L12.374,15.373z"/>
</g>
</svg>
