<?xml version="1.0" encoding="utf-8"?>
<!-- Generator: Adobe Illustrator 16.0.0, SVG Export Plug-In . SVG Version: 6.00 Build 0)  -->
<!DOCTYPE svg PUBLIC "-//W3C//DTD SVG 1.1//EN" "http://www.w3.org/Graphics/SVG/1.1/DTD/svg11.dtd">
<svg version="1.1" id="图层_1" xmlns="http://www.w3.org/2000/svg" xmlns:xlink="http://www.w3.org/1999/xlink" x="0px" y="0px"
	 width="59.993px" height="59.992px" viewBox="0 0 59.993 59.992" enable-background="new 0 0 59.993 59.992" xml:space="preserve">
<g>
	<g>
		<path fill-rule="evenodd" clip-rule="evenodd" fill="#4190EA" d="M29.996,58.491C14.283,58.491,1.5,45.708,1.5,29.997
			c0-15.712,12.783-28.495,28.496-28.495c15.713,0,28.497,12.783,28.497,28.495C58.493,45.708,45.709,58.491,29.996,58.491z"/>
		<path fill="#62A7F5" d="M29.996,3.001c14.886,0,26.997,12.11,26.997,26.995c0,14.885-12.111,26.994-26.997,26.994
			C15.11,56.991,3,44.881,3,29.997C3,15.111,15.11,3.001,29.996,3.001 M29.996,0.001C13.43,0.001,0,13.431,0,29.997
			s13.43,29.994,29.996,29.994s29.997-13.429,29.997-29.994S46.563,0.001,29.996,0.001L29.996,0.001z"/>
	</g>
	<g opacity="0.75">
		<g>
			<path fill-rule="evenodd" clip-rule="evenodd" fill="#FFFFFF" d="M37.211,15.91c-6.168,2.94-8.249,5.232-8.249,5.232
				c9.059,0.056,9.007,6.841,8.999,6.767l-13.788-0.037l0.208-2.963c-6.046,5.406-7.417,11.25-7.417,11.25
				c4.996,8.988,12.705,9.066,14.248,8.998C42.266,45.309,45.46,34.659,45.46,34.659h-8.249c-1.904,4.076-6,3.748-6,3.748
				c-6.631-0.207-7.206-6.661-7.206-6.661l22.204-0.087C46.995,17.94,37.211,15.91,37.211,15.91z M16.213,24.909
				c6.375-6.007,6.15-6.146,12.749-10.287C28.962,14.622,18.772,16.154,16.213,24.909z M14.713,38.407
				c5.101-16.706,20.72-22.755,21.748-23.247c10.181-4.229,8.249,5.25,8.249,5.25c3.538-8.411-4.5-8.249-4.5-8.249
				c-12.655,1.527-21.524,11.799-23.247,13.498c-7.981,9.074-6.749,14.998-6.749,14.998c0.622,8.852,11.999,3.75,11.999,3.75
				C11.137,46.061,14.713,38.407,14.713,38.407z"/>
		</g>
	</g>
</g>
</svg>
