<?xml version="1.0" encoding="utf-8"?>
<!-- Generator: Adobe Illustrator 16.0.0, SVG Export Plug-In . SVG Version: 6.00 Build 0)  -->
<!DOCTYPE svg PUBLIC "-//W3C//DTD SVG 1.1//EN" "http://www.w3.org/Graphics/SVG/1.1/DTD/svg11.dtd">
<svg version="1.1" id="图层_1" xmlns="http://www.w3.org/2000/svg" xmlns:xlink="http://www.w3.org/1999/xlink" x="0px" y="0px"
	 width="59.993px" height="59.992px" viewBox="0 0 59.993 59.992" enable-background="new 0 0 59.993 59.992" xml:space="preserve">
<g>
	<g>
		<path fill-rule="evenodd" clip-rule="evenodd" fill="#19A563" d="M29.996,58.491C14.283,58.491,1.5,45.708,1.5,29.996
			S14.283,1.501,29.996,1.501c15.713,0,28.497,12.783,28.497,28.495S45.709,58.491,29.996,58.491z"/>
		<path fill="#40C485" d="M29.996,3.001c14.886,0,26.997,12.11,26.997,26.995S44.882,56.991,29.996,56.991
			C15.11,56.991,3,44.881,3,29.996S15.11,3.001,29.996,3.001 M29.996,0.001C13.43,0.001,0,13.431,0,29.996
			s13.43,29.995,29.996,29.995s29.997-13.429,29.997-29.995S46.563,0.001,29.996,0.001L29.996,0.001z"/>
	</g>
	<path opacity="0.75" fill-rule="evenodd" clip-rule="evenodd" fill="#FFFFFF" d="M43.87,44.063H16.123v-9.7l9.569-8.298
		l9.839,9.599l3.689-4.8l4.649,5.443V44.063z"/>
	<g opacity="0.75">
		<path fill="#FFFFFF" d="M43.12,16.602c0.138,0,0.25,0.112,0.25,0.25v26.926c0,0.138-0.112,0.25-0.25,0.25H16.873
			c-0.138,0-0.25-0.112-0.25-0.25V16.851c0-0.138,0.112-0.25,0.25-0.25H43.12 M43.12,14.602H16.873c-1.243,0-2.25,1.007-2.25,2.25
			v26.926c0,1.243,1.007,2.25,2.25,2.25H43.12c1.243,0,2.25-1.007,2.25-2.25V16.851C45.37,15.608,44.362,14.602,43.12,14.602
			L43.12,14.602z"/>
	</g>
</g>
</svg>
