<?xml version="1.0" encoding="utf-8"?>
<!-- Generator: Adobe Illustrator 16.0.0, SVG Export Plug-In . SVG Version: 6.00 Build 0)  -->
<!DOCTYPE svg PUBLIC "-//W3C//DTD SVG 1.1//EN" "http://www.w3.org/Graphics/SVG/1.1/DTD/svg11.dtd">
<svg version="1.1" id="图层_1" xmlns="http://www.w3.org/2000/svg" xmlns:xlink="http://www.w3.org/1999/xlink" x="0px" y="0px"
	 width="59.993px" height="59.992px" viewBox="0 0 59.993 59.992" enable-background="new 0 0 59.993 59.992" xml:space="preserve">
<g>
	<g>
		<path fill-rule="evenodd" clip-rule="evenodd" fill="#F06767" d="M29.996,58.491C14.283,58.491,1.5,45.708,1.5,29.996
			S14.283,1.501,29.996,1.501c15.713,0,28.497,12.783,28.497,28.495S45.709,58.491,29.996,58.491z"/>
		<path fill="#FB8787" d="M29.996,3.001c14.886,0,26.997,12.11,26.997,26.995S44.882,56.991,29.996,56.991
			C15.11,56.991,3,44.881,3,29.996S15.11,3.001,29.996,3.001 M29.996,0.001C13.43,0.001,0,13.431,0,29.996
			s13.43,29.995,29.996,29.995s29.997-13.429,29.997-29.995S46.563,0.001,29.996,0.001L29.996,0.001z"/>
	</g>
	<path opacity="0.75" fill-rule="evenodd" clip-rule="evenodd" fill="#FFFFFF" d="M31.971,46.611
		c-4.208,1.296-8.503-0.542-9.594-4.105s1.437-7.502,5.645-8.798c1.255-0.387,2.517-0.489,3.701-0.354l-8.995-12.537
		c0,0,1.211-4.243,9.085-4.368c0,0,2.787,0,3.029-2.496c0,0,3.392,8.486-6.663,8.111h-0.606l7.931,12.767
		c0.988,0.758,1.739,1.767,2.111,2.983C38.707,41.376,36.179,45.315,31.971,46.611z"/>
</g>
</svg>
