<?xml version="1.0" encoding="utf-8"?>
<!-- Generator: Adobe Illustrator 16.0.0, SVG Export Plug-In . SVG Version: 6.00 Build 0)  -->
<!DOCTYPE svg PUBLIC "-//W3C//DTD SVG 1.1//EN" "http://www.w3.org/Graphics/SVG/1.1/DTD/svg11.dtd">
<svg version="1.1" id="图层_1" xmlns="http://www.w3.org/2000/svg" xmlns:xlink="http://www.w3.org/1999/xlink" x="0px" y="0px"
	 width="59.993px" height="59.992px" viewBox="0 0 59.993 59.992" enable-background="new 0 0 59.993 59.992" xml:space="preserve">
<g>
	<g>
		<path fill-rule="evenodd" clip-rule="evenodd" fill="#EB4F38" d="M29.996,58.494C14.283,58.494,1.5,45.71,1.5,29.997
			c0-15.714,12.783-28.498,28.496-28.498c15.713,0,28.497,12.784,28.497,28.498C58.493,45.71,45.709,58.494,29.996,58.494z"/>
		<path fill="#FC735F" d="M29.996,2.999c14.886,0,26.997,12.111,26.997,26.998c0,14.886-12.111,26.997-26.997,26.997
			C15.11,56.994,3,44.883,3,29.997C3,15.11,15.11,2.999,29.996,2.999 M29.996-0.001C13.43-0.001,0,13.428,0,29.997
			c0,16.567,13.43,29.997,29.996,29.997s29.997-13.43,29.997-29.997C59.993,13.428,46.563-0.001,29.996-0.001L29.996-0.001z"/>
	</g>
	<g opacity="0.75">
		<g>
			<path fill-rule="evenodd" clip-rule="evenodd" fill="#FFFFFF" d="M47.245,33.509c0,0-1.37-2.048-9.749-0.75
				c0,0-5.515-0.673-7.499-8.249c0,0,0.722-3.651,0.75-6.749h-1.5c0,0-0.151,1.501-0.556,1.935
				c-0.076,0.081-0.186-4.573,0.181-5.062c0.141-0.188,0.375,1.627,0.375,1.627s1.494-0.023,1.5,0c0,0,1.346-4.7-3-4.5
				c0,0-5.214,0.179-0.75,12.749c0,0-2.298,7.194-6.75,14.248c0,0-9.434,3.065-7.499,7.499c0,0,2.188,2.284,6-0.75
				c0,0,3.562-4.129,4.5-6.749c0,0,8.38-3.465,12.748-3c0.171,0.343,8.412,4.12,10.499,2.25c0,0,0.737-0.828-0.75-2.25
				C45.746,35.758,49.32,35.846,47.245,33.509z M15,45.507c-0.806-0.931,4.5-5.249,4.5-5.249C16.408,45.125,15,45.507,15,45.507z
				 M24.748,35.758c0.789-1.078,3.75-7.499,3.75-7.499c1.184,2.696,4.5,5.25,4.5,5.25C30.33,33.666,24.748,35.758,24.748,35.758z
				 M41.449,35.039c0,0,2.578-0.146,3.75,0.439C45.199,35.478,43.3,35.905,41.449,35.039z"/>
		</g>
	</g>
</g>
</svg>
