<?xml version="1.0" encoding="utf-8"?>
<!-- Generator: Adobe Illustrator 16.0.0, SVG Export Plug-In . SVG Version: 6.00 Build 0)  -->
<!DOCTYPE svg PUBLIC "-//W3C//DTD SVG 1.1//EN" "http://www.w3.org/Graphics/SVG/1.1/DTD/svg11.dtd">
<svg version="1.1" id="图层_1" xmlns="http://www.w3.org/2000/svg" xmlns:xlink="http://www.w3.org/1999/xlink" x="0px" y="0px"
	 width="59.993px" height="59.992px" viewBox="0 0 59.993 59.992" enable-background="new 0 0 59.993 59.992" xml:space="preserve">
<g>
	<g>
		<path fill-rule="evenodd" clip-rule="evenodd" fill="#E57439" d="M29.996,58.492C14.283,58.492,1.5,45.709,1.5,29.996
			S14.283,1.5,29.996,1.5c15.713,0,28.497,12.783,28.497,28.496S45.709,58.492,29.996,58.492z"/>
		<path fill="#EA8F60" d="M29.996,3c14.886,0,26.997,12.11,26.997,26.996S44.882,56.992,29.996,56.992
			C15.11,56.992,3,44.882,3,29.996S15.11,3,29.996,3 M29.996,0C13.43,0,0,13.43,0,29.996s13.43,29.996,29.996,29.996
			s29.997-13.43,29.997-29.996S46.563,0,29.996,0L29.996,0z"/>
	</g>
	<path opacity="0.75" fill-rule="evenodd" clip-rule="evenodd" fill="#FFFFFF" d="M34.102,16.259h-3.829h-6.638H19v6h3v12.849
		v11.151h7v-10h5.102c5.499,0,9.957-4.43,9.957-10S39.601,16.259,34.102,16.259z M36,26.004c0,2.428-0.475,5.255-2.872,5.255H29v-10
		h4.128c2.397,0,2.872,1.282,2.872,3.71V26.004z"/>
</g>
</svg>
