<?xml version="1.0" encoding="utf-8"?>
<!-- Generator: Adobe Illustrator 16.0.0, SVG Export Plug-In . SVG Version: 6.00 Build 0)  -->
<!DOCTYPE svg PUBLIC "-//W3C//DTD SVG 1.1//EN" "http://www.w3.org/Graphics/SVG/1.1/DTD/svg11.dtd">
<svg version="1.1" id="图层_1" xmlns="http://www.w3.org/2000/svg" xmlns:xlink="http://www.w3.org/1999/xlink" x="0px" y="0px"
	 width="59.993px" height="59.992px" viewBox="0 0 59.993 59.992" enable-background="new 0 0 59.993 59.992" xml:space="preserve">
<g>
	<g>
		<path fill-rule="evenodd" clip-rule="evenodd" fill="#967EAE" d="M29.996,58.491C14.283,58.491,1.5,45.709,1.5,29.999
			c0-15.713,12.783-28.497,28.496-28.497c15.713,0,28.497,12.784,28.497,28.497C58.493,45.709,45.709,58.491,29.996,58.491z"/>
		<path fill="#B7A2CC" d="M29.996,3.001c14.886,0,26.997,12.111,26.997,26.997c0,14.884-12.111,26.992-26.997,26.992
			C15.11,56.991,3,44.882,3,29.999C3,15.112,15.11,3.001,29.996,3.001 M29.996,0.001C13.43,0.001,0,13.43,0,29.999
			c0,16.563,13.43,29.992,29.996,29.992s29.997-13.429,29.997-29.992C59.993,13.43,46.563,0.001,29.996,0.001L29.996,0.001z"/>
	</g>
	<path opacity="0.75" fill-rule="evenodd" clip-rule="evenodd" fill="#FFFFFF" d="M32.996,23.216v23.997h-5.999V23.216H14.999
		v-5.999h29.996v5.999H32.996z"/>
</g>
</svg>
