<?xml version="1.0" encoding="utf-8"?>
<!-- Generator: Adobe Illustrator 16.0.0, SVG Export Plug-In . SVG Version: 6.00 Build 0)  -->
<!DOCTYPE svg PUBLIC "-//W3C//DTD SVG 1.1//EN" "http://www.w3.org/Graphics/SVG/1.1/DTD/svg11.dtd">
<svg version="1.1" id="图层_1" xmlns="http://www.w3.org/2000/svg" xmlns:xlink="http://www.w3.org/1999/xlink" x="0px" y="0px"
	 width="59.993px" height="59.992px" viewBox="0 0 59.993 59.992" enable-background="new 0 0 59.993 59.992" xml:space="preserve">
<g>
	<g>
		<g>
			<path fill-rule="evenodd" clip-rule="evenodd" fill="#729AF7" d="M29.996,58.491C14.283,58.491,1.5,45.708,1.5,29.997
				c0-15.712,12.783-28.495,28.496-28.495c15.713,0,28.497,12.783,28.497,28.495C58.493,45.708,45.709,58.491,29.996,58.491z"/>
		</g>
		<g>
			<path fill="#9CB9FD" d="M29.996,3.001c14.886,0,26.997,12.11,26.997,26.995c0,14.885-12.111,26.994-26.997,26.994
				C15.11,56.991,3,44.881,3,29.997C3,15.111,15.11,3.001,29.996,3.001 M29.996,0.001C13.43,0.001,0,13.431,0,29.997
				s13.43,29.994,29.996,29.994s29.997-13.429,29.997-29.994S46.563,0.001,29.996,0.001L29.996,0.001z"/>
		</g>
	</g>
	<g opacity="0.75">
		<path fill="#FFFFFF" d="M32.41,39.161h-6.446c-0.017-0.928-0.025-1.492-0.025-1.694c0-2.09,0.346-3.81,1.036-5.157
			c0.691-1.349,2.073-2.864,4.146-4.55c2.073-1.686,3.313-2.79,3.716-3.312c0.624-0.826,0.936-1.735,0.936-2.73
			c0-1.382-0.552-2.565-1.657-3.553c-1.104-0.985-2.59-1.478-4.461-1.478c-1.803,0-3.507,0.319-4.525,1.541
			c-1.361,1.635-1.112,3.91-1.567,6.017l-6.267-0.097c0.185-3.017-0.537-6.173,2.665-9.711c2.135-2.359,5.515-3.16,9.391-3.16
			c4.078,0,7.323,1.066,9.732,3.197c2.41,2.132,3.615,4.614,3.615,7.445c0,1.567-0.442,3.05-1.327,4.449
			c-0.884,1.398-2.776,3.304-5.675,5.713c-1.5,1.247-2.431,2.25-2.793,3.008S32.376,37.205,32.41,39.161z M25.964,48.715v-7.104
			h7.104v7.104H25.964z"/>
	</g>
</g>
</svg>
