<?xml version="1.0" encoding="utf-8"?>
<!-- Generator: Adobe Illustrator 21.0.0, SVG Export Plug-In . SVG Version: 6.00 Build 0)  -->
<svg version="1.1" id="图层_1" xmlns="http://www.w3.org/2000/svg" xmlns:xlink="http://www.w3.org/1999/xlink" x="0px" y="0px"
	 viewBox="0 0 80 80" style="enable-background:new 0 0 80 80;" xml:space="preserve">
<style type="text/css">
	.st0{fill-rule:evenodd;clip-rule:evenodd;fill:#8D98C6;}
	.st1{fill-rule:evenodd;clip-rule:evenodd;fill:#8D98C6;stroke:#DDE0EE;stroke-miterlimit:10;}
	.st2{fill-rule:evenodd;clip-rule:evenodd;fill:#DDE0EE;}
</style>
<path class="st0" d="M40,0c22.1,0,40,17.9,40,40c0,22.1-17.9,40-40,40C17.9,80,0,62.1,0,40C0,17.9,17.9,0,40,0z"/>
<path class="st1" d="M39.5,14C54.7,14,67,26.3,67,41.5C67,56.7,54.7,69,39.5,69C24.3,69,12,56.7,12,41.5C12,26.3,24.3,14,39.5,14z"
	/>
<path class="st2" d="M31.5,54.5c0-1.2,0-23.1,0-24c0-1.1,1-1.9,2-1.3c0.8,0.5,16.9,11.1,18.3,12c0.9,0.6,0.9,2,0,2.6
	c-1,0.7-17.2,11.3-18.3,12C32.6,56.3,31.5,55.7,31.5,54.5z"/>
</svg>
