<?xml version="1.0" encoding="utf-8"?>
<!-- Generator: Adobe Illustrator 16.0.0, SVG Export Plug-In . SVG Version: 6.00 Build 0)  -->
<!DOCTYPE svg PUBLIC "-//W3C//DTD SVG 1.1//EN" "http://www.w3.org/Graphics/SVG/1.1/DTD/svg11.dtd">
<svg version="1.1" id="图层_1" xmlns="http://www.w3.org/2000/svg" xmlns:xlink="http://www.w3.org/1999/xlink" x="0px" y="0px"
	 width="59.993px" height="59.992px" viewBox="0 0 59.993 59.992" enable-background="new 0 0 59.993 59.992" xml:space="preserve">
<g>
	<g>
		<path fill-rule="evenodd" clip-rule="evenodd" fill="#06AC86" d="M29.996,58.492C14.283,58.492,1.5,45.709,1.5,29.996
			S14.283,1.5,29.996,1.5c15.713,0,28.497,12.783,28.497,28.496S45.709,58.492,29.996,58.492z"/>
		<path fill="#1FCEA6" d="M29.996,3c14.886,0,26.997,12.11,26.997,26.996S44.882,56.992,29.996,56.992
			C15.11,56.992,3,44.882,3,29.996S15.11,3,29.996,3 M29.996,0C13.43,0,0,13.43,0,29.996s13.43,29.996,29.996,29.996
			s29.997-13.43,29.997-29.996S46.563,0,29.996,0L29.996,0z"/>
	</g>
	<path opacity="0.75" fill-rule="evenodd" clip-rule="evenodd" fill="#FFFFFF" d="M16.498,15.373h7.467l6.318,9.944l6.319-9.944
		h6.892L33.73,29.996l9.764,14.623h-6.892l-6.319-9.359l-6.318,9.359h-6.893l9.765-14.038L16.498,15.373z"/>
</g>
</svg>
