<?xml version="1.0" encoding="utf-8"?>
<!-- Generator: Adobe Illustrator 16.0.0, SVG Export Plug-In . SVG Version: 6.00 Build 0)  -->
<!DOCTYPE svg PUBLIC "-//W3C//DTD SVG 1.1//EN" "http://www.w3.org/Graphics/SVG/1.1/DTD/svg11.dtd">
<svg version="1.1" id="图层_1" xmlns="http://www.w3.org/2000/svg" xmlns:xlink="http://www.w3.org/1999/xlink" x="0px" y="0px"
	 width="59.993px" height="59.992px" viewBox="0 0 59.993 59.992" enable-background="new 0 0 59.993 59.992" xml:space="preserve">
<g>
	<g>
		<path fill-rule="evenodd" clip-rule="evenodd" fill="#F2A344" d="M29.996,58.491C14.283,58.491,1.5,45.708,1.5,29.997
			c0-15.712,12.783-28.495,28.496-28.495c15.713,0,28.497,12.783,28.497,28.495C58.493,45.708,45.709,58.491,29.996,58.491z"/>
		<path fill="#F7C180" d="M29.996,3.001c14.886,0,26.997,12.11,26.997,26.995c0,14.885-12.111,26.994-26.997,26.994
			C15.11,56.991,3,44.881,3,29.997C3,15.111,15.11,3.001,29.996,3.001 M29.996,0.001C13.43,0.001,0,13.431,0,29.997
			s13.43,29.994,29.996,29.994s29.997-13.429,29.997-29.994S46.563,0.001,29.996,0.001L29.996,0.001z"/>
	</g>
	<path opacity="0.75" fill-rule="evenodd" clip-rule="evenodd" fill="#FFFFFF" d="M18.381,15.373h24.363v3.396l-16.431,20.89h16.148
		v4.962H17.248v-3.395l16.148-20.63H18.381V15.373z"/>
</g>
</svg>
