<?xml version="1.0" standalone="no"?><!DOCTYPE svg PUBLIC "-//W3C//DTD SVG 1.1//EN" "http://www.w3.org/Graphics/SVG/1.1/DTD/svg11.dtd"><svg t="1504490217526" class="icon" style="" viewBox="0 0 1024 1024" version="1.1" xmlns="http://www.w3.org/2000/svg" p-id="15088" xmlns:xlink="http://www.w3.org/1999/xlink" width="32" height="32"><defs><style type="text/css"></style></defs><path d="M341.344 85.344l341.344 0 85.344 128 128 0q52.992 0 90.496 38.176t37.504 91.168l0 468.672q0 52.992-37.504 90.176t-90.496 37.152l-768 0q-52.992 0-90.496-37.504t-37.504-90.496l0-468.672q0-52.992 37.504-90.848t90.496-37.824l128 0zM512 341.344q43.328 0 82.848 16.992t68 45.504 45.504 68 16.992 82.848-16.992 82.848-45.504 68-68 45.504-82.848 16.992-82.848-16.992-68-45.504-45.504-68-16.992-82.848 16.992-82.848 45.504-68 68-45.504 82.848-16.992zM512 426.656q-52.992 0-90.496 37.504t-37.504 90.496 37.504 90.496 90.496 37.504 90.496-37.504 37.504-90.496-37.504-90.496-90.496-37.504zM722.336 298.656l-83.68-128-251.68 0-85.344 128-173.664 0q-17.664 0-30.176 12.672t-12.512 30.656l0 468.672q0 17.664 12.512 30.176t30.176 12.512l768 0q18.016 0 30.336-12.16t12.32-29.824l0-468.672q0-18.016-12.672-31.008t-30.016-12.992l-173.664 0z" p-id="15089" fill="#ADADAD"></path></svg>