<?xml version="1.0" standalone="no"?><!DOCTYPE svg PUBLIC "-//W3C//DTD SVG 1.1//EN" "http://www.w3.org/Graphics/SVG/1.1/DTD/svg11.dtd"><svg t="1504517685880" class="icon" style="" viewBox="0 0 1042 1024" version="1.1" xmlns="http://www.w3.org/2000/svg" p-id="2469" xmlns:xlink="http://www.w3.org/1999/xlink" width="32.5625" height="32"><defs><style type="text/css"></style></defs><path d="M934.956522 828.104348 614.4 507.547826l320.556522-320.556522c26.713043-26.713043 26.713043-71.234783 0-97.947826-26.713043-26.713043-71.234783-26.713043-97.947826 0l0 0L507.547826 409.6 186.991304 80.13913C160.278261 53.426087 115.756522 53.426087 89.043478 80.13913c0 0 0 0 0 0C62.330435 115.756522 62.330435 160.278261 89.043478 186.991304l320.556522 320.556522L89.043478 828.104348c-26.713043 26.713043-26.713043 71.234783 0 97.947826 26.713043 26.713043 71.234783 26.713043 97.947826 0 0 0 0 0 0 0l320.556522-320.556522 320.556522 320.556522c26.713043 26.713043 71.234783 26.713043 97.947826 0 0 0 0 0 0 0C961.669565 899.33913 961.669565 854.817391 934.956522 828.104348z" p-id="2470" fill="#ADADAD"></path></svg>