<?xml version="1.0" standalone="no"?><!DOCTYPE svg PUBLIC "-//W3C//DTD SVG 1.1//EN" "http://www.w3.org/Graphics/SVG/1.1/DTD/svg11.dtd"><svg t="1504061294679" class="icon" style="" viewBox="0 0 1058 1024" version="1.1" xmlns="http://www.w3.org/2000/svg" p-id="3555" xmlns:xlink="http://www.w3.org/1999/xlink" width="66.125" height="64"><defs><style type="text/css"></style></defs><path d="M574.76129 297.290323l0 396.387097L482.270968 693.677419l0-396.387097L574.76129 297.290323 574.76129 297.290323zM574.76129 0l0 198.193548L482.270968 198.193548 482.270968 0 574.76129 0 574.76129 0zM574.76129 819.2l0 198.193548L482.270968 1017.393548l0-198.193548L574.76129 819.2 574.76129 819.2zM535.122581 554.941935l-198.193548 0L336.929032 462.451613l198.193548 0L535.122581 554.941935 535.122581 554.941935zM198.193548 554.941935 0 554.941935 0 462.451613l198.193548 0L198.193548 554.941935 198.193548 554.941935zM1057.032258 554.941935l-198.193548 0L858.83871 462.451613l198.193548 0L1057.032258 554.941935 1057.032258 554.941935zM746.529032 621.006452l0 224.619355L654.03871 845.625806 654.03871 621.006452 746.529032 621.006452 746.529032 621.006452zM878.658065 713.496774 654.03871 713.496774 654.03871 621.006452l224.619355 0L878.658065 713.496774 878.658065 713.496774zM1057.032258 621.006452l0 396.387097L654.03871 1017.393548 654.03871 924.903226l303.896774 0L957.935484 621.006452 1057.032258 621.006452 1057.032258 621.006452zM0 0l396.387097 0 0 402.993548L310.503226 402.993548 310.503226 99.096774 0 99.096774 0 0 0 0zM396.387097 402.993548 0 402.993548 0 0l92.490323 0 0 303.896774L396.387097 303.896774 396.387097 402.993548 396.387097 402.993548zM0 621.006452l396.387097 0 0 402.993548L310.503226 1024l0-303.896774L0 720.103226 0 621.006452 0 621.006452zM396.387097 1017.393548 0 1017.393548 0 621.006452l92.490323 0L92.490323 924.903226 396.387097 924.903226 396.387097 1017.393548 396.387097 1017.393548zM660.645161 0l396.387097 0 0 402.993548-92.490323 0L964.541935 99.096774 660.645161 99.096774 660.645161 0 660.645161 0zM1057.032258 402.993548l-396.387097 0L660.645161 0l92.490323 0 0 303.896774L1057.032258 303.896774 1057.032258 402.993548 1057.032258 402.993548zM1057.032258 402.993548" p-id="3556" fill="#034837"></path></svg>