<?xml version="1.0" standalone="no"?><!DOCTYPE svg PUBLIC "-//W3C//DTD SVG 1.1//EN" "http://www.w3.org/Graphics/SVG/1.1/DTD/svg11.dtd"><svg t="1504175523553" class="icon" style="" viewBox="0 0 1024 1024" version="1.1" xmlns="http://www.w3.org/2000/svg" p-id="2372" xmlns:xlink="http://www.w3.org/1999/xlink" width="64" height="64"><defs><style type="text/css"></style></defs><path d="M1009.371429 14.628571c7.314286 7.314286 14.628571 14.628571 14.628571 29.257143 0 7.314286 0 14.628571-7.314286 21.942857L519.314286 555.885714c-7.314286 7.314286-14.628571 7.314286-29.257143 7.314286-7.314286 0-21.942857-7.314286-29.257143-14.628571 0-7.314286-7.314286-14.628571-7.314286-29.257143 0-7.314286 0-14.628571 7.314286-21.942857L958.171429 7.314286c7.314286-7.314286 14.628571-7.314286 21.942857-7.314286 14.628571 0 21.942857 7.314286 29.257143 14.628571zM877.714286 438.857143v512c7.314286-29.257143 7.314286-7.314286 0 0s7.314286 0 0 0H73.142857v14.628571s-7.314286 0-7.314286-7.314285L73.142857 950.857143s-14.628571 7.314286 0 0V146.285714c0-7.314286-14.628571 0-7.314286-7.314285 0 0 0 7.314286 7.314286 7.314285h512V73.142857H80.457143c-21.942857 0-43.885714 7.314286-58.514286 29.257143-14.628571 14.628571-21.942857 29.257143-21.942857 51.2v789.942857c0 7.314286 0 21.942857 7.314286 29.257143 7.314286 7.314286 7.314286 14.628571 14.628571 21.942857 7.314286 7.314286 14.628571 14.628571 21.942857 14.628572 14.628571 14.628571 21.942857 14.628571 36.571429 14.628571H877.714286c21.942857 0 43.885714-7.314286 58.514285-21.942857s14.628571-29.257143 14.628572-51.2V438.857143h-73.142857z" p-id="2373" fill="#ffffff"></path></svg>