<?xml version="1.0" standalone="no"?><!DOCTYPE svg PUBLIC "-//W3C//DTD SVG 1.1//EN" "http://www.w3.org/Graphics/SVG/1.1/DTD/svg11.dtd"><svg t="1504059582323" class="icon" style="" viewBox="0 0 1024 1024" version="1.1" xmlns="http://www.w3.org/2000/svg" p-id="6943" xmlns:xlink="http://www.w3.org/1999/xlink" width="48" height="48"><defs><style type="text/css"></style></defs><path d="M813.14816 126.58688 223.16544 126.58688c-68.70016 0-124.56448 57.39008-124.56448 127.94368l0 381.58336c0 72.7296 58.0608 134.18496 126.76096 134.18496l138.60352 0c35.10272 36.82304 126.64832 131.34336 126.64832 131.34336 7.20384 7.5008 17.2032 11.81184 27.5456 11.81184 10.3424 0 20.34688-4.31104 28.32384-12.6464 0.72192-0.80384 71.58272-80.90112 121.74848-130.5088l142.65856 0c68.7616 0 126.82752-61.48096 126.82752-134.2464L937.71776 254.52544C937.71776 183.97696 881.85344 126.58688 813.14816 126.58688zM885.3248 635.99616c0 43.55584-34.75968 81.79712-74.368 81.79712l-163.94752 0-7.63904 7.38816c-41.27744 39.96672-98.8672 103.61344-121.62048 129.04448-27.84768-28.70784-102.39488-105.74848-123.40224-128.14848l-7.7568-8.22272L225.36192 717.85472c-39.54688 0-74.3168-38.2464-74.3168-81.80224L151.04512 254.52544c0-41.58976 32.34816-75.48416 72.12032-75.48416L813.2096 179.04128c39.74144 0 72.1152 33.83808 72.1152 75.48416L885.3248 635.99616zM321.49504 407.17824c-27.18208 0-49.13664 22.76352-49.13664 50.88768 0 28.11392 22.016 50.88256 49.13664 50.88256 27.09504 0 49.13664-22.76352 49.13664-50.88256C370.6368 429.94176 348.65152 407.17824 321.49504 407.17824zM518.15936 407.17824c-27.18208 0-49.13664 22.76352-49.13664 50.88768 0 28.11392 22.00576 50.88256 49.13664 50.88256 27.09504 0 49.14176-22.76352 49.14176-50.88256C567.30112 429.94176 545.31584 407.17824 518.15936 407.17824zM714.82368 407.17824c-27.15648 0-49.19808 22.76352-49.19808 50.88768 0 28.11392 22.04672 50.88256 49.19808 50.88256 27.17696 0 49.13664-22.76352 49.13664-50.88256C764.01152 429.94176 742.00064 407.17824 714.82368 407.17824z" p-id="6944" fill="#45C018"></path></svg>