<?xml version="1.0" standalone="no"?><!DOCTYPE svg PUBLIC "-//W3C//DTD SVG 1.1//EN" "http://www.w3.org/Graphics/SVG/1.1/DTD/svg11.dtd"><svg t="1504175600295" class="icon" style="" viewBox="0 0 1024 1024" version="1.1" xmlns="http://www.w3.org/2000/svg" p-id="4497" xmlns:xlink="http://www.w3.org/1999/xlink" width="64" height="64"><defs><style type="text/css"></style></defs><path d="M810.666667 981.333333H213.333333c-72.533333 0-128-55.466667-128-128v-128c0-25.6 17.066667-42.666667 42.666667-42.666666s42.666667 17.066667 42.666667 42.666666v128c0 25.6 17.066667 42.666667 42.666666 42.666667h597.333334c25.6 0 42.666667-17.066667 42.666666-42.666667v-128c0-25.6 17.066667-42.666667 42.666667-42.666666s42.666667 17.066667 42.666667 42.666666v128c0 72.533333-55.466667 128-128 128zM682.666667 298.666667c-12.8 0-21.333333-4.266667-29.866667-12.8L512 145.066667 371.2 285.866667c-17.066667 17.066667-42.666667 17.066667-59.733333 0s-17.066667-42.666667 0-59.733334l170.666666-170.666666c17.066667-17.066667 42.666667-17.066667 59.733334 0l170.666666 170.666666c17.066667 17.066667 17.066667 42.666667 0 59.733334-8.533333 8.533333-17.066667 12.8-29.866666 12.8z" p-id="4498" fill="#ffffff"></path><path d="M512 725.333333c-25.6 0-42.666667-17.066667-42.666667-42.666666V85.333333c0-25.6 17.066667-42.666667 42.666667-42.666666s42.666667 17.066667 42.666667 42.666666v597.333334c0 25.6-17.066667 42.666667-42.666667 42.666666z" p-id="4499" fill="#ffffff"></path></svg>