<?xml version="1.0" standalone="no"?><!DOCTYPE svg PUBLIC "-//W3C//DTD SVG 1.1//EN" "http://www.w3.org/Graphics/SVG/1.1/DTD/svg11.dtd"><svg t="1504060643539" class="icon" style="" viewBox="0 0 1026 1024" version="1.1" xmlns="http://www.w3.org/2000/svg" p-id="19032" xmlns:xlink="http://www.w3.org/1999/xlink" width="32.0625" height="32"><defs><style type="text/css"></style></defs><path d="M516.256 321.408c-106.032 0-192 85.968-192 192s85.968 192 192 192 192-85.968 192-192S622.288 321.408 516.256 321.408zM516.256 641.408c-70.576 0-129.472-58.816-129.472-129.408 0-70.576 57.424-128 128-128 70.592 0 128 57.424 128 128C642.784 582.592 586.848 641.408 516.256 641.408zM1024.464 504.56c-0.368-1.616-0.192-3.328-0.688-4.912-0.192-0.672-0.624-1.056-0.848-1.648-0.336-0.912-0.256-1.984-0.72-2.864C929.12 282.064 728.56 159.408 514.784 159.408c-213.76 0-418.368 122.432-511.488 335.552-0.4 0.896-0.336 1.824-0.656 2.848-0.224 0.608-0.688 0.976-0.896 1.568-0.496 1.616-0.304 3.296-0.608 4.928-0.592 2.88-1.136 5.68-1.136 8.576 0 2.96 0.544 5.68 1.136 8.592 0.32 1.6 0.112 3.36 0.608 4.896C1.952 527.056 2.432 527.376 2.64 528c0.32 0.896 0.256 1.968 0.656 2.848C96.416 743.936 299.024 864.592 512.784 864.592c213.776 0 416.336-120.4 509.44-333.504 0.464-0.912 0.368-1.872 0.72-2.88 0.224-0.56 0.656-0.976 0.848-1.584 0.496-1.552 0.32-3.28 0.688-4.912 0.56-2.896 1.088-5.664 1.088-8.608C1025.568 510.24 1025.04 507.472 1024.464 504.56zM512.784 800.592c-181.296 0-359.744-95.568-447.424-287.696C152.208 321.44 333.04 223.408 514.784 223.408c181.68 0 358.496 98.144 445.376 289.712C873.344 704.528 694.528 800.592 512.784 800.592z" p-id="19033" fill="#d2d2d2"></path></svg>